<svg xmlns="http://www.w3.org/2000/svg" viewBox="0 0 613.49 613.49"><defs><style>.cls-1{fill:#231f20;}.cls-2{fill:#c9509d;}.cls-3{fill:#fbc112;}.cls-4{fill:#1d1300;}.cls-5{fill:#cdc7d1;}.cls-6{fill:#0081c8;}.cls-7{fill:#bec0c2;}.cls-8{fill:#737577;}.cls-9{fill:#84d5f7;}.cls-10{fill:#0db14b;}.cls-11{fill:#b34465;}.cls-12{fill:#68494b;}.cls-13{fill:#35bff0;}.cls-14{fill:#fff;}</style></defs><title>GL_icon-color_1</title><g id="Layer_1" data-name="Layer 1"><path class="cls-1" d="M390.18,393.25a8.11,8.11,0,0,1-4.84,7.79q-28.47,12.09-62.3,12.09-46.2,0-75.6-28.74T218,312.69q0-42.43,29.28-71.44t73.85-29q32.49,0,56.93,10.74,5.1,1.88,5.11,7.79v30.61q0,8.33-7.79,5.37a133.47,133.47,0,0,0-50-9.66q-26.86,0-42.44,16.11t-15.57,39.48q0,23.63,15.17,39.88T323,368.81a82.78,82.78,0,0,0,20.14-2.41V325.31q0-6.72,6.71-6.72h33.57q6.72,0,6.72,6.72Z"/><path class="cls-2" d="M515.77,122l-11-11.05a8.88,8.88,0,0,0-12.52,0l-8.47,8.47a2.29,2.29,0,0,0-.74,1.66,1.76,1.76,0,0,0,.74,1.47L504.17,143a1.76,1.76,0,0,0,1.48.74,2.29,2.29,0,0,0,1.65-.74l8.47-8.47a8.87,8.87,0,0,0,0-12.51Z"/><path class="cls-3" d="M431.45,189.39l2.21-11.79h6.63v8.84h8.84v6.63l-11.78,2.21v5.9l14.36-2.59,48.23-48.23a2.31,2.31,0,0,0,.74-1.66,1.76,1.76,0,0,0-.74-1.47L479.5,126.79a1.74,1.74,0,0,0-1.47-.73,2.3,2.3,0,0,0-1.66.73L428.14,175l-2.59,14.36ZM479,142.62,450.6,171a2.68,2.68,0,0,1-3.68,0,2.67,2.67,0,0,1,0-3.69l28.35-28.35a2.6,2.6,0,0,1,3.68,3.68Z"/><path class="cls-4" d="M437.35,195.28l-5.9-5.89h-5.9l-1.46,8.1a4.56,4.56,0,0,0,5.16,5.15l8.1-1.46Z"/><path class="cls-1" d="M325.6,111.11H299.42L287,129.33a5.07,5.07,0,0,0-.91,3.65,5.33,5.33,0,0,0,1.66,3.31,5,5,0,0,0,3.56,1.33h42.58a4.76,4.76,0,0,0,3.4-1.33,5.27,5.27,0,0,0,1.65-3.31,5,5,0,0,0-.91-3.65Z"/><path class="cls-5" d="M342,44.5a7.69,7.69,0,0,0-5.63-2.32H288.65a7.92,7.92,0,0,0-7.95,8V97.85a7.92,7.92,0,0,0,7.95,8h47.72a7.92,7.92,0,0,0,7.95-8V50.13A7.67,7.67,0,0,0,342,44.5Z"/><path class="cls-6" d="M133.48,111.11q-5-5.52-11.41-5.34a14.84,14.84,0,0,0-10.22,4.69,15,15,0,0,0-4.69,10.41q-.18,6.25,5.15,11.22l36.82,33.69,18-18Z"/><path class="cls-7" d="M183.37,177.94l17.13,17.12.92-.92-10.87-32.59a5.52,5.52,0,0,0-3.68-3.68l-15.46-6.08L153.18,170l6.08,15.46a5.52,5.52,0,0,0,3.68,3.68L195.53,200l.92-.92L179.32,182l-.36.18a5.13,5.13,0,0,1-1.11.18,5.86,5.86,0,1,1,5.89-5.89,5.13,5.13,0,0,1-.18,1.11Z"/><path class="cls-7" d="M488.41,478.23a17.67,17.67,0,0,0,12.5-30.2L480.08,427.2a17.67,17.67,0,1,0-25,25L475.92,473A17,17,0,0,0,488.41,478.23Z"/><path class="cls-8" d="M531.16,479.27l-2.09-2.08a2.81,2.81,0,0,0-4.16,0l-7.29,7.29-4.43-4.43a32.91,32.91,0,0,0,5.14-29.23,31.37,31.37,0,0,0-8-13.21l-6.25-6.25a2.84,2.84,0,0,0-4.17,0l-2.08,2.09a2.83,2.83,0,0,0,0,4.16l6.25,6.25a22.65,22.65,0,0,1,6.25,11.33,24.26,24.26,0,0,1-.59,12.82,22.33,22.33,0,0,1-7.49,10.74,21.68,21.68,0,0,1-10.47,4.75,24.46,24.46,0,0,1-11.72-.91A25,25,0,0,1,470,476.4l-5.47-5.46a2.83,2.83,0,0,0-4.16,0L458.26,473a2.82,2.82,0,0,0,0,4.17l5.2,5.2A34.59,34.59,0,0,0,477,490.85a33,33,0,0,0,15.62,1.44,30.84,30.84,0,0,0,14.32-6l4.43,4.42L504.08,498a2.84,2.84,0,0,0,0,4.17l2.08,2.08a2.84,2.84,0,0,0,4.17,0l20.82-20.83a2.82,2.82,0,0,0,0-4.16Z"/><path class="cls-9" d="M283.7,551.48a1.51,1.51,0,0,1-1.26.63,2.33,2.33,0,0,1-1.42-.47l-22.67-21.25a1.92,1.92,0,0,1,0-2.84L281,506.3a2.27,2.27,0,0,1,1.42-.47,1.51,1.51,0,0,1,1.26.63l6.77,7.24a1.71,1.71,0,0,1,.55,1.42,2,2,0,0,1-.55,1.25L276.14,529l14.33,12.59a2,2,0,0,1,.55,1.26,1.71,1.71,0,0,1-.55,1.42Zm25.06,17.63a1.48,1.48,0,0,0,1.41-.08,2.36,2.36,0,0,0,.95-1.18l21.41-74a1.49,1.49,0,0,0-.08-1.41,2.4,2.4,0,0,0-1.18-.95l-9.6-2.83a1.87,1.87,0,0,0-1.42.23,2.41,2.41,0,0,0-.94,1.19l-21.41,74a1.51,1.51,0,0,0,.07,1.42,2.41,2.41,0,0,0,1.19.94Zm39.46-17.47a2.35,2.35,0,0,1-1.42.47,1.5,1.5,0,0,1-1.26-.63l-6.77-7.24a1.71,1.71,0,0,1-.55-1.42,2,2,0,0,1,.55-1.26L353.1,529l-14.33-12.6a2,2,0,0,1-.55-1.25,1.71,1.71,0,0,1,.55-1.42l6.77-7.24a1.89,1.89,0,0,1,1.34-.63,2.17,2.17,0,0,1,1.34.47l22.67,21.25a1.94,1.94,0,0,1,0,2.84Z"/><path class="cls-10" d="M109.35,301.37A6.61,6.61,0,0,1,112.5,305a7.09,7.09,0,0,1,0,4.68,6.61,6.61,0,0,1-3.15,3.66L57.84,343.81a6.63,6.63,0,0,1-4.69.88A7,7,0,0,1,49,342.35a6.63,6.63,0,0,1-1.68-4.54V276.93a6.59,6.59,0,0,1,1.75-4.76A7.19,7.19,0,0,1,53.3,270a6.37,6.37,0,0,1,4.54.95Z"/><path class="cls-11" d="M151,440.63a16.85,16.85,0,0,0-4.05-.56,16.33,16.33,0,0,0-10.5,3.69q-5,3.86-11.6,14-5.88,9.19-16.75,29.45a19.55,19.55,0,0,0-2.58,8.75,8.14,8.14,0,0,0,2.95,6.35,10.27,10.27,0,0,0,7,2.58,10.79,10.79,0,0,0,7.36-2.95q7.92-7.19,19.51-17.3,11.23-9.76,14.55-12.89a35.55,35.55,0,0,0,6.07-7.36,14.3,14.3,0,0,0,1.48-6.82,16.71,16.71,0,0,0-1.66-7.18Z"/><path class="cls-12" d="M194.28,419.09q-6.25-8.47-18-8.47-10.68,0-17.12,5.89t-6.45,16.2l.19,1.66L169.06,448a22.73,22.73,0,0,0,10.31-3.13q5-3.32,7.55-10.31a2.6,2.6,0,0,1,2.57-1.84q1.84,0,8.66,5.16l1.65,1.28Q199.8,426.82,194.28,419.09Z"/><path class="cls-13" d="M547.13,265.9h-24A27.11,27.11,0,0,0,496.07,293v23.55a27.1,27.1,0,0,0,27.11,27.1h24a27.1,27.1,0,0,0,27.1-27.1V293A27.1,27.1,0,0,0,547.13,265.9Z"/><path class="cls-14" d="M538.64,284a4.59,4.59,0,0,1,1,3.34v11.92l10.9-3.63a13.32,13.32,0,0,1,1.89-.29,3.88,3.88,0,0,1,2.91,1.45,5.62,5.62,0,0,1,1.31,3.93,2.72,2.72,0,0,1-.73,2,6.14,6.14,0,0,1-2.47,1.31l-11.05,3.49L550.71,319a4.29,4.29,0,0,1,1.16,2.91,4,4,0,0,1-1.67,2.76,4.92,4.92,0,0,1-3.12,1.45c-1.17,0-2.28-.72-3.35-2.18l-8.58-12.07-8.58,12.07c-1.06,1.46-2.18,2.18-3.34,2.18a5,5,0,0,1-3.27-1.45,3.91,3.91,0,0,1-1.67-2.76A4.35,4.35,0,0,1,519.6,319l8.14-11.49L516.83,304c-2.13-.67-3.2-1.79-3.2-3.34a7.14,7.14,0,0,1,1-3.64,3.32,3.32,0,0,1,3.06-1.74,12.75,12.75,0,0,1,2,.29l11.2,3.63V287.29a4.75,4.75,0,0,1,7.7-3.34Z"/></g></svg>