<?xml version="1.0" encoding="utf-8"?>
<!-- Generator: Adobe Illustrator 24.0.1, SVG Export Plug-In . SVG Version: 6.00 Build 0)  -->
<svg version="1.1" id="Layer_1" xmlns="http://www.w3.org/2000/svg" xmlns:xlink="http://www.w3.org/1999/xlink" x="0px" y="0px"
	 viewBox="0 0 785.9 214.7" style="enable-background:new 0 0 785.9 214.7;" xml:space="preserve">
<style type="text/css">
	.st0{fill:#FFFFFF;}
</style>
<title>PL_wordmark-white-nopadding</title>
<path class="st0" d="M41.8,192.5H0.1V32.3h66.3c18,0,31.8,4.7,41.3,14s14.3,22.5,14.3,39.5c0,17-4.8,30.2-14.3,39.5
	s-23.3,14-41.3,14H41.8V192.5z M41.8,105.8h13.8c15.3,0,22.9-6.7,22.9-20s-7.6-20-22.9-20H41.8V105.8z"/>
<path class="st0" d="M170.5,83.5v61.4c0,13.5,6.5,20.2,19.6,20.2c13,0,19.5-6.7,19.5-20.2V83.5H248v68.8c0,14.7-4.8,25.8-14.6,33.1
	c-9.7,7.4-24.2,11-43.4,11c-19.3,0-33.7-3.7-43.4-11c-9.7-7.3-14.6-18.4-14.6-33.1V83.5H170.5z"/>
<path class="st0" d="M304.1,16.1v78.2c9.1-9.5,20.4-14.2,34-14.2c7.6-0.1,15.2,1.5,22.2,4.6c6.5,2.9,12.4,7.1,17.2,12.4
	c4.8,5.3,8.6,11.5,11.2,18.3c5.4,14.6,5.4,30.6-0.1,45.2c-2.6,6.8-6.6,13.1-11.6,18.4c-5,5.2-10.9,9.5-17.5,12.4
	c-6.8,3.1-14.3,4.6-21.8,4.6c-14.2,0-25.3-5.2-33.6-15.5v12.1h-38.5V16.1H304.1z M352.6,138.3c0-6.6-2.6-12.9-7.2-17.6
	c-2.3-2.3-4.9-4.1-7.9-5.4c-3.1-1.4-6.4-2-9.8-2c-6.5-0.1-12.8,2.6-17.3,7.2c-2.2,2.3-4,5-5.3,8c-4.1,9.2-2,20,5.2,27
	c2.3,2.2,5,4,8,5.3c6.1,2.7,13.1,2.7,19.2,0.1c2.9-1.2,5.6-3,7.8-5.3c2.2-2.3,4-4.9,5.3-7.9C351.9,144.7,352.6,141.5,352.6,138.3z"
	/>
<path class="st0" d="M447.1,32.3v124.9H497v35.3h-91.5V32.3H447.1z"/>
<path class="st0" d="M502.1,137c-0.1-7.8,1.6-15.5,4.9-22.6c3.2-7,7.9-13.2,13.6-18.3c6.1-5.3,13.1-9.5,20.7-12.2
	c8.4-3,17.3-4.6,26.2-4.5c8.9-0.1,17.7,1.4,26,4.3c7.6,2.7,14.7,6.8,20.8,12.1c5.8,5.1,10.5,11.4,13.7,18.5c3.3,7.4,5,15.5,4.9,23.7
	c0.1,8.2-1.6,16.3-5,23.7c-3.2,7-7.9,13.3-13.7,18.5c-6.1,5.3-13.2,9.4-20.9,12c-8.5,2.9-17.5,4.3-26.5,4.2
	c-8.8,0.1-17.6-1.3-25.9-4.2c-7.6-2.6-14.5-6.7-20.5-12.1c-5.8-5.3-10.4-11.7-13.5-18.8C503.7,153.7,502,145.4,502.1,137z
	 M542.7,137.4c-0.1,3.5,0.6,6.9,2,10.1c1.3,3,3.1,5.7,5.3,8c2.2,2.3,4.9,4.1,7.9,5.3c6.2,2.6,13.1,2.6,19.3,0c3-1.2,5.6-3,7.9-5.3
	c2.2-2.3,4-5,5.3-8c1.4-3.1,2-6.5,2-9.9c0-3.3-0.7-6.6-2-9.7c-1.3-3-3.1-5.7-5.3-8c-2.2-2.3-4.9-4.1-7.9-5.3
	c-6.2-2.5-13.1-2.5-19.3,0c-3,1.2-5.6,3-7.9,5.3c-2.2,2.3-4,5-5.3,7.9C543.3,130.9,542.7,134.1,542.7,137.4L542.7,137.4z"/>
<path class="st0" d="M688.2,115.6v76.9h-38.5v-76.9H636V83.5h13.8V67.1c0-9.1,0.8-16.3,2.5-21.7c1.5-4.6,3.8-8.9,6.8-12.6
	c3.1-3.9,6.8-7.3,10.9-10.1c4.2-2.8,8.7-5,13.5-6.6c4.6-1.5,9.4-2.3,14.2-2.3c3,0,6.1,0.3,9,1.1c2.9,0.8,5.7,1.8,8.4,3v33.5
	c-2.3-1.2-4.7-2.1-7.1-2.9c-2.2-0.7-4.6-1-6.9-1c-1.6,0-3.2,0.3-4.8,0.8c-1.8,0.6-3.4,1.7-4.6,3.1c-1.6,1.9-2.6,4.3-2.8,6.7
	c-0.6,3.9-0.8,7.8-0.8,11.8v13.6h27v32.1H688.2z"/>
<path class="st0" d="M764,115.6v76.9h-38.5v-76.9h-12.7V83.5h12.7V50.8H764v32.7h21.9v32.1H764z"/>
</svg>
