<svg xmlns="http://www.w3.org/2000/svg" xmlns:xlink="http://www.w3.org/1999/xlink" width="1920" height="1080" viewBox="0 0 1920 1080"><defs><linearGradient id="a" x1="0.54" y1="1" x2="0.548" y2="-0.017" gradientUnits="objectBoundingBox"><stop offset="0" stop-color="#21c1f7" stop-opacity="0.239"/><stop offset="1" stop-color="#21c1f7" stop-opacity="0.502"/></linearGradient><clipPath id="c"><rect width="1920" height="1080"/></clipPath></defs><g id="b" clip-path="url(#c)"><rect width="1920" height="1080" fill="#fff"/><path d="M2155.418-6231.94,2172.08-6255l322.717-57.72,376.953-136.612,574.4-184.422,334.593-298.939L4088.659-7125.3H4126.7l-25.388,881.888Z" transform="translate(-2172.196 7331.079)" stroke="#21c1f7" stroke-linecap="round" stroke-width="5" fill="url(#a)"/><circle cx="7.5" cy="7.5" r="7.5" transform="translate(-7 1071)" fill="#0580c4"/><circle cx="7.5" cy="7.5" r="7.5" transform="translate(316 1010)" fill="#0580c4"/><circle cx="7.5" cy="7.5" r="7.5" transform="translate(639 893)" fill="#0580c4"/><circle cx="7.5" cy="7.5" r="7.5" transform="translate(959 788)" fill="#0580c4"/><circle cx="7.5" cy="7.5" r="7.5" transform="translate(1263 690)" fill="#0580c4"/><circle cx="7.5" cy="7.5" r="7.5" transform="translate(1591 398)" fill="#0580c4"/><circle cx="7.5" cy="7.5" r="7.5" transform="translate(1907 200)" fill="#0580c4"/></g></svg>